<svg xmlns="http://www.w3.org/2000/svg" viewBox="0 0 56.392 56.392">
  <defs>
    <style>
      .cls-1 {
        fill: #fff;
      }
    </style>
  </defs>
  <g id="about_icon" transform="translate(0 0)">
    <g id="Group_6" data-name="Group 6" transform="translate(0)">
      <path id="Path_19" data-name="Path 19" class="cls-1" d="M48.133,36.454a28.088,28.088,0,0,0-10.715-6.721,16.3,16.3,0,1,0-18.446,0A28.24,28.24,0,0,0,0,56.392H4.406a23.79,23.79,0,0,1,47.581,0h4.406A28.012,28.012,0,0,0,48.133,36.454ZM28.2,28.2a11.9,11.9,0,1,1,11.9-11.9A11.909,11.909,0,0,1,28.2,28.2Z" transform="translate(0 0)"/>
    </g>
  </g>
</svg>
