<svg xmlns="http://www.w3.org/2000/svg" viewBox="0 0 21.925 15.946"><defs><style>.a{fill:#2096b0;}</style></defs><g transform="translate(0 -6)"><g transform="translate(0 6)"><path class="a" d="M21.427,6H.5a.5.5,0,0,0-.5.5V21.447a.5.5,0,0,0,.5.5H21.427a.5.5,0,0,0,.5-.5V6.5A.5.5,0,0,0,21.427,6Zm-.5,13.744-6.173-6.173-.7.7,6.673,6.673H1.2l6.673-6.673-.7-.7L1,19.744V7H20.929Z" transform="translate(0 -6)"/></g><g transform="translate(0.997 6.997)"><path class="a" d="M20.925,8l-8.959,8.959L3.007,8H2v.4l9.614,9.614a.5.5,0,0,0,.7,0L21.932,8.4V8Z" transform="translate(-2 -8)"/></g></g></svg>