<svg xmlns="http://www.w3.org/2000/svg" viewBox="0 0 135.258 156.182"><defs><style>.a{fill:#2096b0;}</style></defs><path class="a" d="M171.4,47.1,233.913,83.19v72.184L171.4,191.467l-62.513-36.092V83.19L171.4,47.1m0-5.907L103.771,80.237v78.091L171.4,197.373l67.629-39.046V80.237L171.4,41.191Z" transform="translate(-103.771 -41.191)"/><path class="a" d="M60.229,177.344l13.641,7.844V148.7h40.753V135.056H73.87V120.213l40.753-23.182V79.809L60.229,111.184Z" transform="translate(-49.959 -66.2)"/><path class="a" d="M422.911,210.843l-.682-127.034,14.409,8.355-.085,96.341,5.627-3.24.171-89.8,13.726,7.957.085,75.368,5.627-3.24V106.829l13.471,7.673v66.16Z" transform="translate(-350.233 -69.518)"/></svg>