<svg xmlns="http://www.w3.org/2000/svg" viewBox="0 0 34.87 37.325">
  <title>skills_icon</title>
  <g id="Layer_2" data-name="Layer 2">
    <g id="Layer_1-2" data-name="Layer 1">
      <g id="skills">
        <g id="skills_header">
          <g id="Skills_icon" data-name="Skills icon">
            <g>
              <path d="M0,24.594H1.431V37.325H12.1V24.594h1.431V9.314H0ZM2.309,11.623h3.3v7.2H7.92v-7.2h3.3V22.285H9.792V35.016H3.74V22.285H2.309Z" fill="#fff"/>
              <path d="M6.766,7.772A3.886,3.886,0,1,0,2.88,3.886,3.89,3.89,0,0,0,6.766,7.772Zm0-5.463A1.577,1.577,0,1,1,5.189,3.886,1.579,1.579,0,0,1,6.766,2.309Z" fill="#fff"/>
              <path d="M31.029,7.681a3.84,3.84,0,1,0-3.84-3.84A3.845,3.845,0,0,0,31.029,7.681Zm0-5.372A1.532,1.532,0,1,1,29.5,3.84,1.533,1.533,0,0,1,31.029,2.309Z" fill="#fff"/>
              <path d="M31.029,29.644a3.84,3.84,0,1,0,3.84,3.84A3.845,3.845,0,0,0,31.029,29.644Zm0,5.372a1.532,1.532,0,1,1,1.532-1.532A1.533,1.533,0,0,1,31.029,35.016Z" fill="#fff"/>
              <path d="M31.029,19.763a3.84,3.84,0,1,0,3.84,3.84A3.845,3.845,0,0,0,31.029,19.763Zm0,5.372A1.532,1.532,0,1,1,32.561,23.6,1.533,1.533,0,0,1,31.029,25.135Z" fill="#fff"/>
              <path d="M31.029,9.881a3.84,3.84,0,1,0,3.84,3.84A3.845,3.845,0,0,0,31.029,9.881Zm0,5.372a1.532,1.532,0,1,1,1.532-1.532A1.533,1.533,0,0,1,31.029,15.253Z" fill="#fff"/>
              <polygon points="19.283 17.508 16.226 17.508 16.226 19.817 19.283 19.817 19.283 34.639 24.649 34.639 24.649 32.33 21.592 32.33 21.592 24.757 24.649 24.757 24.649 22.449 21.592 22.449 21.592 14.876 24.649 14.876 24.649 12.567 21.592 12.567 21.592 4.995 24.649 4.995 24.649 2.686 19.283 2.686 19.283 17.508" fill="#fff"/>
            </g>
          </g>
        </g>
      </g>
    </g>
  </g>
</svg>
