<svg xmlns="http://www.w3.org/2000/svg" viewBox="0 0 20.322 25.194"><defs><style>.a{fill:#2096b0;}</style></defs><path class="a" d="M36.064,96a4.064,4.064,0,1,0,4.064,4.064A4.069,4.069,0,0,0,36.064,96Zm0,7.315a3.251,3.251,0,1,1,3.251-3.251A3.255,3.255,0,0,1,36.064,103.315Zm0,0" transform="translate(-30.374 -91.124)"/><path class="a" d="M80.622,128.059A.407.407,0,0,0,80,128.4v4.064a.406.406,0,0,0,.622.345l3.251-2.032a.406.406,0,0,0,0-.689Zm.191,3.675v-2.6l2.078,1.3Zm0,0" transform="translate(-75.936 -121.495)"/><path class="a" d="M215.9,320.037a.4.4,0,0,0-.426.039l-.975.731V320.4a.407.407,0,0,0-.406-.406h-4.064a.407.407,0,0,0-.406.406v.406h-.406a1.219,1.219,0,1,0,0,2.438h.406v.406a.407.407,0,0,0,.406.406h.406v3.251h.813v-3.251h.813v3.251h.813v-3.251H214.1a.407.407,0,0,0,.406-.406v-.406l.975.731a.406.406,0,0,0,.65-.325V320.4A.407.407,0,0,0,215.9,320.037Zm-6.685,2.4a.406.406,0,1,1,0-.813h.406v.813Zm4.471.813h-3.251v-2.438h3.251Zm1.626-.406-.813-.61v-.406l.813-.61Zm0,0" transform="translate(-197.432 -303.74)"/><path class="a" d="M19.915,0H.406A.407.407,0,0,0,0,.406V24.788a.407.407,0,0,0,.406.406H19.915a.407.407,0,0,0,.406-.406V.406A.407.407,0,0,0,19.915,0Zm-.406.813V3.251H.813V.813ZM.813,24.382V4.064h18.7V24.382Zm0,0" transform="translate(0 0)"/><path class="a" d="M32,32h.813v.813H32Zm0,0" transform="translate(-30.374 -30.375)"/><path class="a" d="M64,32h.813v.813H64Zm0,0" transform="translate(-60.749 -30.375)"/><path class="a" d="M96,32h.813v.813H96Zm0,0" transform="translate(-91.123 -30.375)"/><path class="a" d="M128,32h12.193v.813H128Zm0,0" transform="translate(-121.497 -30.375)"/><path class="a" d="M249.219,114.438A1.219,1.219,0,1,0,248,113.219,1.221,1.221,0,0,0,249.219,114.438Zm0-1.625a.406.406,0,1,1-.406.406A.407.407,0,0,1,249.219,112.813Zm0,0" transform="translate(-235.4 -106.311)"/><path class="a" d="M208.416,149.7h7.316a.406.406,0,0,0,.375-.562l-2.032-4.876a.435.435,0,0,0-.378-.25.407.407,0,0,0-.374.255l-1.368,3.419-1.162-1.858a.422.422,0,0,0-.689,0l-2.032,3.251a.406.406,0,0,0,.344.621Zm5.291-4.207,1.415,3.395h-2.417l-.217-.348Zm-3.259,1.317,1.3,2.078h-2.6Zm0,0" transform="translate(-197.443 -136.693)"/><path class="a" d="M51.152,272.006A3.338,3.338,0,0,0,48,275.376a4.473,4.473,0,0,0,.609,2.252l2.292,3.928a.406.406,0,0,0,.7,0l2.292-3.928a4.475,4.475,0,0,0,.609-2.252v-.12a3.251,3.251,0,0,0-3.351-3.249Zm2.538,3.37a3.661,3.661,0,0,1-.5,1.843l-1.94,3.326-1.94-3.326a3.661,3.661,0,0,1-.5-1.844,2.52,2.52,0,0,1,2.363-2.556h.076a2.438,2.438,0,0,1,2.438,2.438Zm0,0" transform="translate(-45.561 -258.188)"/><path class="a" d="M81.626,304a1.625,1.625,0,1,0,1.626,1.625A1.627,1.627,0,0,0,81.626,304Zm0,2.438a.813.813,0,1,1,.813-.813A.814.814,0,0,1,81.626,306.438Zm0,0" transform="translate(-75.936 -288.558)"/></svg>