<svg xmlns="http://www.w3.org/2000/svg" viewBox="0 0 53.288 66.065">
  <defs>
    <style>
      .cls-1 {
        fill: #fff;
      }
    </style>
  </defs>
  <g id="work_icon" transform="translate(0 0)">
    <path id="Path_20" data-name="Path 20" class="cls-1" d="M42.658,96a10.656,10.656,0,1,0,10.658,10.656A10.668,10.668,0,0,0,42.658,96Zm0,19.18a8.525,8.525,0,1,1,8.526-8.525A8.535,8.535,0,0,1,42.658,115.18Zm0,0" transform="translate(-27.737 -83.213)"/>
    <path id="Path_21" data-name="Path 21" class="cls-1" d="M81.63,128.159a1.066,1.066,0,0,0-1.63.9v10.656a1.066,1.066,0,0,0,1.63.9l8.526-5.328a1.065,1.065,0,0,0,0-1.808Zm.5,9.637v-6.811l5.449,3.405Zm0,0" transform="translate(-69.342 -110.948)"/>
    <path id="Path_22" data-name="Path 22" class="cls-1" d="M228.725,320.107a1.062,1.062,0,0,0-1.116.1l-2.558,1.918V321.06a1.066,1.066,0,0,0-1.066-1.065H213.329a1.066,1.066,0,0,0-1.066,1.065v1.066H211.2a3.2,3.2,0,1,0,0,6.393h1.066v1.065a1.066,1.066,0,0,0,1.066,1.066h1.066v8.525h2.132v-8.525h2.131v8.525h2.132v-8.525h3.2a1.066,1.066,0,0,0,1.066-1.066v-1.065l2.558,1.918a1.065,1.065,0,0,0,1.705-.852V321.06A1.066,1.066,0,0,0,228.725,320.107ZM211.2,326.388a1.066,1.066,0,1,1,0-2.131h1.066v2.131Zm11.723,2.131h-8.526v-6.393h8.526Zm4.263-1.066-2.131-1.6V324.79l2.131-1.6Zm0,0" transform="translate(-180.29 -277.372)"/>
    <path id="Path_23" data-name="Path 23" class="cls-1" d="M52.222,0H1.066A1.066,1.066,0,0,0,0,1.066V65a1.066,1.066,0,0,0,1.066,1.066H52.222A1.066,1.066,0,0,0,53.288,65V1.066A1.066,1.066,0,0,0,52.222,0ZM51.156,2.131V8.525H2.132V2.131ZM2.132,63.934V10.656H51.156V63.934Zm0,0" transform="translate(0 0)"/>
    <path id="Path_24" data-name="Path 24" class="cls-1" d="M32,32h2.132v2.131H32Zm0,0" transform="translate(-27.737 -27.738)"/>
    <path id="Path_25" data-name="Path 25" class="cls-1" d="M64,32h2.132v2.131H64Zm0,0" transform="translate(-55.474 -27.738)"/>
    <path id="Path_26" data-name="Path 26" class="cls-1" d="M96,32h2.132v2.131H96Zm0,0" transform="translate(-83.211 -27.738)"/>
    <path id="Path_27" data-name="Path 27" class="cls-1" d="M128,32h31.973v2.131H128Zm0,0" transform="translate(-110.948 -27.738)"/>
    <path id="Path_28" data-name="Path 28" class="cls-1" d="M251.2,118.393a3.2,3.2,0,1,0-3.2-3.2A3.2,3.2,0,0,0,251.2,118.393Zm0-4.262a1.066,1.066,0,1,1-1.066,1.066A1.068,1.068,0,0,1,251.2,114.131Zm0,0" transform="translate(-214.962 -97.082)"/>
    <path id="Path_29" data-name="Path 29" class="cls-1" d="M209.075,158.925h19.184a1.064,1.064,0,0,0,.983-1.475l-5.329-12.787a1.141,1.141,0,0,0-.991-.656,1.066,1.066,0,0,0-.982.669l-3.586,8.966-3.046-4.872a1.108,1.108,0,0,0-1.808,0l-5.329,8.524a1.065,1.065,0,0,0,.9,1.629Zm13.875-11.033,3.71,8.9h-6.337l-.57-.912Zm-8.546,3.454,3.406,5.448H211Zm0,0" transform="translate(-180.299 -124.827)"/>
    <path id="Path_30" data-name="Path 30" class="cls-1" d="M56.265,272.008A8.753,8.753,0,0,0,48,280.844a11.728,11.728,0,0,0,1.6,5.906l6.009,10.3a1.065,1.065,0,0,0,1.84,0l6.009-10.3a11.735,11.735,0,0,0,1.6-5.906v-.315a8.524,8.524,0,0,0-8.787-8.52Zm6.656,8.836a9.6,9.6,0,0,1-1.307,4.833L56.526,294.4l-5.088-8.721a9.6,9.6,0,0,1-1.307-4.836,6.607,6.607,0,0,1,6.2-6.7l.2,0a6.394,6.394,0,0,1,6.393,6.393Zm0,0" transform="translate(-41.605 -235.775)"/>
    <path id="Path_31" data-name="Path 31" class="cls-1" d="M84.263,304a4.262,4.262,0,1,0,4.263,4.262A4.267,4.267,0,0,0,84.263,304Zm0,6.393a2.131,2.131,0,1,1,2.132-2.131A2.133,2.133,0,0,1,84.263,310.393Zm0,0" transform="translate(-69.342 -263.509)"/>
  </g>
</svg>
